%TF.GenerationSoftware,KiCad,Pcbnew,6.0.8-f2edbf62ab~116~ubuntu22.04.1*%
%TF.CreationDate,2022-10-28T12:05:40+02:00*%
%TF.ProjectId,FLWSB-SAMDaaNo21,464c5753-422d-4534-914d-4461614e6f32,1.0*%
%TF.SameCoordinates,Original*%
%TF.FileFunction,Drillmap*%
%TF.FilePolarity,Positive*%
%FSLAX45Y45*%
G04 Gerber Fmt 4.5, Leading zero omitted, Abs format (unit mm)*
G04 Created by KiCad (PCBNEW 6.0.8-f2edbf62ab~116~ubuntu22.04.1) date 2022-10-28 12:05:40*
%MOMM*%
%LPD*%
G01*
G04 APERTURE LIST*
%ADD10C,0.100000*%
%ADD11C,0.200000*%
G04 APERTURE END LIST*
D10*
X16929289Y-6920711D02*
X16929258Y-8824604D01*
X8355509Y-8824831D02*
X8355409Y-6920711D01*
X8355509Y-8824831D02*
G75*
G03*
X8455509Y-8924831I100001J1D01*
G01*
X8455409Y-6820711D02*
X16829289Y-6820711D01*
X16929289Y-6920711D02*
G75*
G03*
X16829289Y-6820711I-99999J1D01*
G01*
X16829258Y-8924604D02*
X8455509Y-8924831D01*
X8455409Y-6820709D02*
G75*
G03*
X8355409Y-6920711I1J-100001D01*
G01*
X16829258Y-8924598D02*
G75*
G03*
X16929258Y-8824604I2J99998D01*
G01*
D11*
X8608028Y-9240307D02*
X8608028Y-9040307D01*
X8655647Y-9040307D01*
X8684218Y-9049831D01*
X8703266Y-9068878D01*
X8712790Y-9087926D01*
X8722313Y-9126021D01*
X8722313Y-9154593D01*
X8712790Y-9192688D01*
X8703266Y-9211735D01*
X8684218Y-9230783D01*
X8655647Y-9240307D01*
X8608028Y-9240307D01*
X8808028Y-9240307D02*
X8808028Y-9106974D01*
X8808028Y-9145069D02*
X8817552Y-9126021D01*
X8827075Y-9116497D01*
X8846123Y-9106974D01*
X8865171Y-9106974D01*
X8931837Y-9240307D02*
X8931837Y-9106974D01*
X8931837Y-9040307D02*
X8922313Y-9049831D01*
X8931837Y-9059355D01*
X8941361Y-9049831D01*
X8931837Y-9040307D01*
X8931837Y-9059355D01*
X9055647Y-9240307D02*
X9036599Y-9230783D01*
X9027075Y-9211735D01*
X9027075Y-9040307D01*
X9160409Y-9240307D02*
X9141361Y-9230783D01*
X9131837Y-9211735D01*
X9131837Y-9040307D01*
X9388980Y-9240307D02*
X9388980Y-9040307D01*
X9455647Y-9183164D01*
X9522313Y-9040307D01*
X9522313Y-9240307D01*
X9703266Y-9240307D02*
X9703266Y-9135545D01*
X9693742Y-9116497D01*
X9674694Y-9106974D01*
X9636599Y-9106974D01*
X9617552Y-9116497D01*
X9703266Y-9230783D02*
X9684218Y-9240307D01*
X9636599Y-9240307D01*
X9617552Y-9230783D01*
X9608028Y-9211735D01*
X9608028Y-9192688D01*
X9617552Y-9173640D01*
X9636599Y-9164116D01*
X9684218Y-9164116D01*
X9703266Y-9154593D01*
X9798504Y-9106974D02*
X9798504Y-9306974D01*
X9798504Y-9116497D02*
X9817552Y-9106974D01*
X9855647Y-9106974D01*
X9874694Y-9116497D01*
X9884218Y-9126021D01*
X9893742Y-9145069D01*
X9893742Y-9202212D01*
X9884218Y-9221259D01*
X9874694Y-9230783D01*
X9855647Y-9240307D01*
X9817552Y-9240307D01*
X9798504Y-9230783D01*
X9979456Y-9221259D02*
X9988980Y-9230783D01*
X9979456Y-9240307D01*
X9969933Y-9230783D01*
X9979456Y-9221259D01*
X9979456Y-9240307D01*
X9979456Y-9116497D02*
X9988980Y-9126021D01*
X9979456Y-9135545D01*
X9969933Y-9126021D01*
X9979456Y-9116497D01*
X9979456Y-9135545D01*
M02*
